{"glyphs":{"0":{"ha":2151,"x_min":null,"x_max":null,"o":"m 1515 976 l 637 976 b 370 710 464 976 370 883 l 370 271 b 637 4 370 98 464 4 l 1515 4 b 1781 271 1688 4 1781 98 l 1781 710 b 1515 976 1781 883 1688 976 z m 613 442 l 613 678 b 692 758 613 747 624 758 l 1460 758 b 1517 750 1487 758 1505 756 z m 647 226 l 1538 531 l 1538 302 b 1460 223 1538 233 1528 223 l 692 223 b 647 226 673 223 658 224 z "},"1":{"ha":2151,"x_min":null,"x_max":null,"o":"m 1094 972 l 712 972 l 712 753 l 1038 753 b 1117 674 1107 753 1117 743 l 1117 0 l 1360 0 l 1360 706 b 1094 972 1360 878 1267 972 z "},"2":{"ha":2151,"x_min":null,"x_max":null,"o":"m 1499 972 l 412 972 l 412 753 l 1444 753 b 1522 674 1512 753 1522 743 b 1444 595 1522 606 1512 595 l 642 595 b 375 329 469 595 375 501 l 375 0 l 1772 0 l 1772 219 l 618 219 l 618 298 b 697 377 618 366 628 377 l 1499 377 b 1765 643 1672 377 1765 471 l 1765 706 b 1499 972 1765 878 1672 972 z "},"3":{"ha":2151,"x_min":null,"x_max":null,"o":"m 1483 972 l 392 972 l 392 753 l 1427 753 b 1506 674 1496 753 1506 743 l 1506 595 l 953 595 l 953 377 l 1506 377 l 1506 298 b 1427 219 1506 229 1496 219 l 383 219 l 383 0 l 1483 0 b 1749 267 1656 0 1749 94 l 1749 706 b 1483 972 1749 878 1656 972 z "},"4":{"ha":2151,"x_min":null,"x_max":null,"o":"m 585 674 l 585 981 l 342 981 l 342 643 b 608 377 342 471 436 377 l 1376 377 l 1376 0 l 1619 0 l 1619 377 l 1879 377 l 1879 595 l 1619 595 l 1619 972 l 1376 972 l 1376 595 l 664 595 b 585 674 595 595 585 606 z "},"5":{"ha":2151,"x_min":null,"x_max":null,"o":"m 409 0 l 1486 0 b 1752 267 1658 0 1752 94 l 1752 329 b 1486 595 1752 501 1658 595 l 658 595 l 658 753 l 1720 753 l 1720 972 l 415 972 l 415 377 l 1430 377 b 1509 298 1499 377 1509 366 b 1430 219 1509 229 1499 219 l 409 219 z "},"6":{"ha":2151,"x_min":null,"x_max":null,"o":"m 1687 972 l 643 972 b 376 706 471 972 376 878 l 376 267 b 643 0 376 94 471 0 l 1525 0 b 1792 267 1698 0 1792 94 l 1792 329 b 1525 595 1792 501 1698 595 l 619 595 l 619 718 b 655 753 619 749 624 753 l 1687 753 z m 619 298 l 619 377 l 1469 377 b 1549 298 1538 377 1549 366 b 1469 219 1549 229 1538 219 l 699 219 b 619 298 630 219 619 229 z "},"7":{"ha":2151,"x_min":null,"x_max":null,"o":"m 489 0 l 813 0 l 1915 868 l 1915 972 l 311 972 l 311 763 l 1427 763 l 489 32 z "},"8":{"ha":2151,"x_min":null,"x_max":null,"o":"m 614 0 l 1538 0 b 1804 267 1710 0 1804 94 l 1804 343 l 1561 343 l 1561 298 b 1483 219 1561 229 1551 219 l 669 219 b 590 298 601 219 590 229 b 669 377 590 366 601 377 l 1437 377 b 1703 643 1610 377 1703 471 l 1703 706 b 1437 972 1703 878 1610 972 l 715 972 b 449 706 542 972 449 878 l 449 647 l 692 647 l 692 674 b 770 753 692 743 702 753 l 1381 753 b 1460 674 1450 753 1460 743 b 1381 595 1460 606 1450 595 l 614 595 b 347 329 442 595 347 501 l 347 267 b 614 0 347 94 442 0 z "},"9":{"ha":2151,"x_min":null,"x_max":null,"o":"m 465 0 l 1509 0 b 1775 267 1681 0 1775 94 l 1775 706 b 1509 972 1775 878 1681 972 l 626 972 b 360 706 454 972 360 878 l 360 643 b 626 377 360 471 454 377 l 1532 377 l 1532 298 b 1453 219 1532 229 1522 219 l 465 219 z m 603 674 b 682 753 603 743 614 753 l 1453 753 b 1532 674 1522 753 1532 743 l 1532 595 l 682 595 b 603 674 614 595 603 606 z "}," ":{"ha":888,"x_min":null,"x_max":null,"o":""}," ":{"ha":888,"x_min":null,"x_max":null,"o":""},"A":{"ha":2072,"x_min":null,"x_max":null,"o":"m 1592 0 l 1851 0 l 1851 32 l 1163 972 l 909 972 l 221 32 l 221 0 l 478 0 l 1033 752 z "},"B":{"ha":1868,"x_min":null,"x_max":null,"o":"m 324 0 l 1346 0 b 1612 267 1518 0 1612 94 l 1612 329 b 1346 595 1612 501 1518 595 l 1186 595 l 1186 706 b 919 972 1186 878 1092 972 l 324 972 l 324 753 l 864 753 b 943 674 932 753 943 743 l 943 595 l 333 595 l 333 377 l 1290 377 b 1369 298 1358 377 1369 366 b 1290 219 1369 229 1358 219 l 324 219 z "},"C":{"ha":2007,"x_min":null,"x_max":null,"o":"m 1661 972 l 637 972 b 370 706 464 972 370 878 l 370 267 b 637 0 370 94 464 0 l 1661 0 l 1661 219 l 692 219 b 613 298 624 219 613 229 l 613 674 b 692 753 613 743 624 753 l 1661 753 z "},"D":{"ha":1992,"x_min":null,"x_max":null,"o":"m 1356 972 l 346 972 l 346 753 l 1300 753 b 1379 674 1369 753 1379 743 l 1379 298 b 1300 219 1379 229 1369 219 l 346 219 l 346 0 l 1356 0 b 1622 267 1528 0 1622 94 l 1622 706 b 1356 972 1622 878 1528 972 z "},"E":{"ha":1965,"x_min":null,"x_max":null,"o":"m 388 595 l 388 377 l 834 377 l 834 595 z m 379 0 l 1590 0 l 1590 219 l 379 219 z m 379 753 l 1572 753 l 1572 972 l 379 972 z "},"F":{"ha":1871,"x_min":null,"x_max":null,"o":"m 379 972 l 379 0 l 612 0 l 612 377 l 972 377 l 972 595 l 612 595 l 612 753 l 1662 753 l 1662 972 z "},"G":{"ha":2034,"x_min":null,"x_max":null,"o":"m 1661 972 l 637 972 b 370 706 464 972 370 878 l 370 267 b 637 0 370 94 464 0 l 1661 0 l 1661 600 l 1016 600 l 1016 382 l 1418 382 l 1418 219 l 692 219 b 613 298 624 219 613 229 l 613 674 b 692 753 613 743 624 753 l 1661 753 z "},"H":{"ha":2138,"x_min":null,"x_max":null,"o":"m 379 972 l 379 0 l 622 0 l 622 382 l 1515 382 l 1515 0 l 1758 0 l 1758 972 l 1515 972 l 1515 600 l 622 600 l 622 972 z "},"I":{"ha":1001,"x_min":null,"x_max":null,"o":"m 379 972 l 379 0 l 622 0 l 622 972 z "},"J":{"ha":1945,"x_min":null,"x_max":null,"o":"m 1323 972 l 1323 298 b 1244 219 1323 229 1313 219 l 590 219 b 511 298 522 219 511 229 l 511 485 l 269 485 l 269 267 b 535 0 269 94 363 0 l 1300 0 b 1566 267 1472 0 1566 94 l 1566 972 z "},"K":{"ha":1945,"x_min":null,"x_max":null,"o":"m 379 972 l 379 0 l 622 0 l 622 972 z m 695 467 l 1354 0 l 1676 0 l 1676 32 l 1015 494 l 1648 940 l 1648 972 l 1352 972 l 695 506 z "},"L":{"ha":1886,"x_min":null,"x_max":null,"o":"m 379 972 l 379 0 l 1629 0 l 1629 219 l 624 219 l 624 972 z "},"M":{"ha":2297,"x_min":null,"x_max":null,"o":"m 1917 972 l 1667 972 l 1123 550 l 578 972 l 249 972 l 249 940 l 1096 283 l 1149 283 l 1674 696 l 1674 0 l 1917 0 z "},"N":{"ha":2113,"x_min":null,"x_max":null,"o":"m 1612 -14 l 1733 -14 l 1733 972 l 1490 972 l 1490 340 l 501 986 l 379 986 l 379 0 l 622 0 l 622 642 z "},"O":{"ha":2151,"x_min":null,"x_max":null,"o":"m 1515 972 l 637 972 b 370 706 464 972 370 878 l 370 267 b 637 0 370 94 464 0 l 1515 0 b 1781 267 1688 0 1781 94 l 1781 706 b 1515 972 1781 878 1688 972 z m 613 298 l 613 674 b 692 753 613 743 624 753 l 1460 753 b 1538 674 1528 753 1538 743 l 1538 298 b 1460 219 1538 229 1528 219 l 692 219 b 613 298 624 219 613 229 z "},"P":{"ha":2015,"x_min":null,"x_max":null,"o":"m 379 972 l 379 0 l 622 0 l 622 377 l 1474 377 b 1740 643 1646 377 1740 471 l 1740 706 b 1474 972 1740 878 1646 972 z m 622 595 l 622 753 l 1417 753 b 1497 674 1486 753 1497 743 b 1417 595 1497 606 1486 595 z "},"Q":{"ha":2151,"x_min":null,"x_max":null,"o":"m 1515 974 l 637 974 b 370 707 464 974 370 880 l 370 268 b 637 1 370 95 464 1 l 992 1 l 1252 -278 l 1515 -278 l 1515 -246 l 1295 1 l 1515 1 b 1781 268 1688 1 1781 95 l 1781 707 b 1515 974 1781 880 1688 974 z m 613 299 l 613 676 b 692 755 613 744 624 755 l 1460 755 b 1538 676 1528 755 1538 744 l 1538 299 b 1460 220 1538 231 1528 220 l 692 220 b 613 299 624 220 613 231 z "},"R":{"ha":1881,"x_min":null,"x_max":null,"o":"m 1277 972 l 257 972 l 257 753 l 1222 753 b 1300 674 1290 753 1300 743 b 1222 595 1300 606 1290 595 l 627 595 l 627 486 l 1274 0 l 1567 0 l 1567 32 l 1112 377 l 1277 377 b 1543 643 1449 377 1543 471 l 1543 706 b 1277 972 1543 878 1449 972 z "},"S":{"ha":1980,"x_min":null,"x_max":null,"o":"m 1570 972 l 629 972 b 363 706 457 972 363 878 l 363 645 b 629 379 363 473 457 379 l 1304 379 b 1383 300 1372 379 1383 369 l 1383 298 b 1304 219 1383 229 1372 219 l 358 219 l 358 0 l 1360 0 b 1626 267 1532 0 1626 94 l 1626 331 b 1360 597 1626 503 1532 597 l 685 597 b 606 676 617 597 606 608 b 685 753 606 743 617 753 l 1570 753 z "},"T":{"ha":1943,"x_min":null,"x_max":null,"o":"m 1694 972 l 249 972 l 249 753 l 850 753 l 850 0 l 1093 0 l 1093 753 l 1694 753 z "},"U":{"ha":2133,"x_min":null,"x_max":null,"o":"m 646 0 l 1488 0 b 1754 267 1660 0 1754 94 l 1754 972 l 1511 972 l 1511 298 b 1432 219 1511 229 1501 219 l 701 219 b 622 298 633 219 622 229 l 622 972 l 379 972 l 379 267 b 646 0 379 94 474 0 z "},"V":{"ha":2084,"x_min":null,"x_max":null,"o":"m 492 972 l 226 972 l 226 940 l 915 0 l 1168 0 l 1857 940 l 1857 972 l 1592 972 l 1043 211 z "},"W":{"ha":2455,"x_min":null,"x_max":null,"o":"m 1708 0 l 2210 940 l 2210 972 l 1947 972 l 1444 32 l 1444 0 z m 245 940 l 723 0 l 1016 0 l 1510 926 l 1510 958 l 1247 958 l 872 242 l 505 972 l 245 972 z "},"X":{"ha":1861,"x_min":null,"x_max":null,"o":"m 269 940 l 767 481 l 274 32 l 274 0 l 566 0 l 928 333 l 1290 0 l 1583 0 l 1583 32 l 1092 482 l 1592 940 l 1592 972 l 1306 972 l 931 630 l 557 972 l 269 972 z "},"Y":{"ha":1914,"x_min":null,"x_max":null,"o":"m 485 972 l 181 972 l 181 940 l 835 328 l 835 0 l 1078 0 l 1078 327 l 1733 940 l 1733 972 l 1432 972 l 958 526 z "},"Z":{"ha":1979,"x_min":null,"x_max":null,"o":"m 335 972 l 335 753 l 1167 753 l 292 104 l 292 0 l 1690 0 l 1690 219 l 816 219 l 1683 868 l 1683 972 z "},"a":{"ha":2043,"x_min":null,"x_max":null,"o":"m 675 375 l 1442 375 l 1442 219 l 675 219 b 597 297 607 219 597 229 b 675 375 597 364 607 375 z m 364 267 b 630 0 364 94 458 0 l 1674 0 l 1674 169 l 1675 169 l 1675 706 b 1409 972 1675 878 1581 972 l 423 972 l 423 753 l 1364 753 b 1442 674 1432 753 1442 743 l 1442 593 l 630 593 b 364 327 458 593 364 499 z "},"b":{"ha":2080,"x_min":null,"x_max":null,"o":"m 379 0 l 1474 0 b 1740 267 1646 0 1740 94 l 1740 329 b 1474 595 1740 501 1646 595 l 622 595 l 622 972 l 379 972 z m 622 219 l 622 377 l 1417 377 b 1497 298 1486 377 1497 366 b 1417 219 1497 229 1486 219 z "},"c":{"ha":2007,"x_min":null,"x_max":null,"o":"m 1661 972 l 637 972 b 370 706 464 972 370 878 l 370 267 b 637 0 370 94 464 0 l 1661 0 l 1661 219 l 692 219 b 613 298 624 219 613 229 l 613 674 b 692 753 613 743 624 753 l 1661 753 z "},"d":{"ha":2080,"x_min":null,"x_max":null,"o":"m 607 0 l 1701 0 l 1701 972 l 1458 972 l 1458 595 l 607 595 b 340 329 434 595 340 501 l 340 267 b 607 0 340 94 434 0 z m 583 298 b 663 377 583 366 594 377 l 1458 377 l 1458 219 l 663 219 b 583 298 594 219 583 229 z "},"e":{"ha":2075,"x_min":null,"x_max":null,"o":"m 1433 972 l 637 972 b 370 706 464 972 370 878 l 370 267 b 637 0 370 94 464 0 l 1700 0 l 1700 219 l 692 219 b 613 298 624 219 613 229 l 613 377 l 1700 377 l 1700 706 b 1433 972 1700 878 1606 972 z m 613 595 l 613 674 b 692 753 613 743 624 753 l 1378 753 b 1457 674 1447 753 1457 743 l 1457 595 z "},"f":{"ha":1977,"x_min":null,"x_max":null,"o":"m 514 706 l 514 595 l 277 595 l 277 377 l 514 377 l 514 0 l 747 0 l 747 377 l 1674 377 l 1674 595 l 747 595 l 747 674 b 826 753 747 743 757 753 l 1683 753 l 1683 972 l 781 972 b 514 706 608 972 514 878 z "},"g":{"ha":2119,"x_min":null,"x_max":null,"o":"m 682 753 l 1497 753 l 1497 597 l 682 597 b 603 676 614 597 603 608 b 682 753 603 743 614 753 z m 370 645 b 637 379 370 473 464 379 l 1497 379 l 1497 298 b 1417 219 1497 229 1486 219 l 488 219 l 488 0 l 1474 0 b 1740 267 1646 0 1740 94 l 1740 972 l 637 972 b 370 706 464 972 370 878 z "},"h":{"ha":2168,"x_min":null,"x_max":null,"o":"m 379 972 l 379 0 l 622 0 l 622 382 l 1485 382 b 1564 303 1553 382 1564 371 l 1564 0 l 1807 0 l 1807 334 b 1540 600 1807 506 1713 600 l 622 600 l 622 972 z "},"i":{"ha":1001,"x_min":null,"x_max":null,"o":"m 379 600 l 379 0 l 622 0 l 622 600 z m 379 741 l 622 741 l 622 972 l 379 972 z "},"j":{"ha":1871,"x_min":null,"x_max":null,"o":"m 1249 972 l 1249 741 l 1492 741 l 1492 972 z m 240 0 l 1225 0 b 1492 267 1397 0 1492 94 l 1492 600 l 1249 600 l 1249 298 b 1169 219 1249 229 1238 219 l 240 219 z "},"k":{"ha":2138,"x_min":null,"x_max":null,"o":"m 379 972 l 379 0 l 622 0 l 622 382 l 1437 382 b 1515 303 1505 382 1515 371 l 1515 0 l 1758 0 l 1758 334 b 1492 600 1758 506 1665 600 l 1392 600 l 1758 940 l 1758 972 l 1466 972 l 1071 600 l 622 600 l 622 972 z "},"l":{"ha":1858,"x_min":null,"x_max":null,"o":"m 379 972 l 379 267 b 646 0 379 94 474 0 l 1618 0 l 1618 219 l 701 219 b 622 298 633 219 622 229 l 622 972 z "},"m":{"ha":2354,"x_min":null,"x_max":null,"o":"m 379 972 l 379 0 l 622 0 l 622 753 l 1061 753 l 1061 0 l 1304 0 l 1304 753 l 1664 753 b 1743 674 1733 753 1743 743 l 1743 0 l 1986 0 l 1986 706 b 1719 972 1986 878 1892 972 z "},"n":{"ha":2106,"x_min":null,"x_max":null,"o":"m 379 972 l 379 0 l 622 0 l 622 753 l 1415 753 b 1494 674 1483 753 1494 743 l 1494 0 l 1738 0 l 1738 706 b 1471 972 1738 878 1643 972 z "},"o":{"ha":2151,"x_min":null,"x_max":null,"o":"m 1515 972 l 637 972 b 370 706 464 972 370 878 l 370 267 b 637 0 370 94 464 0 l 1515 0 b 1781 267 1688 0 1781 94 l 1781 706 b 1515 972 1781 878 1688 972 z m 613 298 l 613 674 b 692 753 613 743 624 753 l 1460 753 b 1538 674 1528 753 1538 743 l 1538 298 b 1460 219 1538 229 1528 219 l 692 219 b 613 298 624 219 613 229 z "},"p":{"ha":2015,"x_min":null,"x_max":null,"o":"m 379 972 l 379 0 l 622 0 l 622 377 l 1474 377 b 1740 643 1646 377 1740 471 l 1740 706 b 1474 972 1740 878 1646 972 z m 622 595 l 622 753 l 1417 753 b 1497 674 1486 753 1497 743 b 1417 595 1497 606 1486 595 z "},"q":{"ha":2015,"x_min":null,"x_max":null,"o":"m 1636 972 l 542 972 b 276 706 369 972 276 878 l 276 643 b 542 377 276 471 369 377 l 1393 377 l 1393 0 l 1636 0 z m 519 674 b 598 753 519 743 529 753 l 1393 753 l 1393 595 l 598 595 b 519 674 529 595 519 606 z "},"r":{"ha":1810,"x_min":null,"x_max":null,"o":"m 379 706 l 379 0 l 622 0 l 622 674 b 701 753 622 743 633 753 l 1553 753 l 1553 972 l 646 972 b 379 706 474 972 379 878 z "},"s":{"ha":1980,"x_min":null,"x_max":null,"o":"m 1570 972 l 629 972 b 363 706 457 972 363 878 l 363 645 b 629 379 363 473 457 379 l 1304 379 b 1383 300 1372 379 1383 369 l 1383 298 b 1304 219 1383 229 1372 219 l 358 219 l 358 0 l 1360 0 b 1626 267 1532 0 1626 94 l 1626 331 b 1360 597 1626 503 1532 597 l 685 597 b 606 676 617 597 606 608 b 685 753 606 743 617 753 l 1570 753 z "},"t":{"ha":1949,"x_min":null,"x_max":null,"o":"m 251 595 l 251 377 l 503 377 l 503 267 b 769 0 503 94 597 0 l 1657 0 l 1657 219 l 826 219 b 747 298 757 219 747 229 l 747 377 l 1657 377 l 1657 595 l 747 595 l 747 972 l 503 972 l 503 595 z "},"u":{"ha":2057,"x_min":null,"x_max":null,"o":"m 617 0 l 1678 0 l 1678 972 l 1435 972 l 1435 219 l 673 219 b 594 298 604 219 594 229 l 594 972 l 351 972 l 351 267 b 617 0 351 94 444 0 z "},"v":{"ha":2084,"x_min":null,"x_max":null,"o":"m 1592 972 l 1041 211 l 492 972 l 227 972 l 227 940 l 916 0 l 1169 0 l 1858 940 l 1858 972 z "},"w":{"ha":2455,"x_min":null,"x_max":null,"o":"m 1708 0 l 2210 940 l 2210 972 l 1947 972 l 1444 32 l 1444 0 z m 245 940 l 723 0 l 1016 0 l 1510 926 l 1510 958 l 1247 958 l 872 242 l 505 972 l 245 972 z "},"x":{"ha":1861,"x_min":null,"x_max":null,"o":"m 269 940 l 767 481 l 274 32 l 274 0 l 566 0 l 928 333 l 1290 0 l 1583 0 l 1583 32 l 1092 482 l 1592 940 l 1592 972 l 1306 972 l 931 630 l 557 972 l 269 972 z "},"y":{"ha":1991,"x_min":null,"x_max":null,"o":"m 524 972 l 230 972 l 230 940 l 835 378 l 467 32 l 467 0 l 747 0 l 1762 940 l 1762 972 l 1469 972 l 996 528 z "},"z":{"ha":1979,"x_min":null,"x_max":null,"o":"m 335 972 l 335 753 l 1167 753 l 292 104 l 292 0 l 1690 0 l 1690 219 l 816 219 l 1683 868 l 1683 972 z "},".":{"ha":707,"x_min":null,"x_max":null,"o":"m 230 0 l 477 0 l 477 247 l 230 247 z "},",":{"ha":707,"x_min":null,"x_max":null,"o":"m 230 237 l 230 -163 l 262 -163 l 477 51 l 477 237 z "},":":{"ha":707,"x_min":null,"x_max":null,"o":"m 230 284 l 230 37 l 477 37 l 477 284 z m 230 623 l 477 623 l 477 870 l 230 870 z "},";":{"ha":707,"x_min":null,"x_max":null,"o":"m 230 870 l 230 623 l 477 623 l 477 870 z m 230 -116 l 262 -116 l 477 99 l 477 284 l 230 284 z "},"…":{"ha":1834,"x_min":null,"x_max":null,"o":"m 1357 0 l 1604 0 l 1604 247 l 1357 247 z m 230 0 l 477 0 l 477 247 l 230 247 z m 794 0 l 1041 0 l 1041 247 l 794 247 z "},"!":{"ha":1006,"x_min":null,"x_max":null,"o":"m 379 224 l 379 0 l 626 0 l 626 224 z m 381 285 l 624 285 l 624 972 l 381 972 z "},"?":{"ha":1926,"x_min":null,"x_max":null,"o":"m 1332 972 l 201 972 l 201 754 l 1287 754 b 1366 675 1355 754 1366 744 l 1366 674 b 1287 595 1366 606 1355 595 l 751 595 l 751 285 l 994 285 l 994 377 l 1332 377 b 1598 643 1504 377 1598 471 l 1598 706 b 1332 972 1598 878 1504 972 z m 749 0 l 997 0 l 997 224 l 749 224 z "},"·":{"ha":1006,"x_min":null,"x_max":null,"o":"m 379 363 l 626 363 l 626 610 l 379 610 z "},"•":{"ha":1053,"x_min":null,"x_max":null,"o":"m 379 339 l 674 339 l 674 633 l 379 633 z "},"*":{"ha":2150,"x_min":null,"x_max":null,"o":"m 963 833 l 963 644 l 709 778 l 398 778 l 398 746 l 889 486 l 398 226 l 398 194 l 709 194 l 963 328 l 963 139 l 1187 139 l 1187 328 l 1441 194 l 1752 194 l 1752 226 l 1261 486 l 1752 746 l 1752 778 l 1441 778 l 1187 644 l 1187 833 z "},"#":{"ha":2142,"x_min":null,"x_max":null,"o":"m 788 972 l 729 778 l 390 778 l 390 560 l 663 560 l 619 413 l 321 413 l 321 194 l 552 194 l 503 32 l 503 0 l 726 0 l 785 194 l 1197 194 l 1149 32 l 1149 0 l 1372 0 l 1430 194 l 1769 194 l 1769 413 l 1497 413 l 1541 560 l 1839 560 l 1839 778 l 1607 778 l 1656 940 l 1656 972 l 1433 972 l 1374 778 l 962 778 l 1011 940 l 1011 972 z m 851 413 l 896 560 l 1308 560 l 1264 413 z "},"/":{"ha":1239,"x_min":null,"x_max":null,"o":"m 793 1111 l 217 -107 l 217 -139 l 446 -139 l 1022 1079 l 1022 1111 z "},"\\":{"ha":1239,"x_min":null,"x_max":null,"o":"m 446 1111 l 217 1111 l 217 1079 l 793 -139 l 1022 -139 l 1022 -107 z "},"-":{"ha":1269,"x_min":null,"x_max":null,"o":"m 327 595 l 327 377 l 942 377 l 942 595 z "},"_":{"ha":1752,"x_min":null,"x_max":null,"o":"m 379 0 l 379 -219 l 1373 -219 l 1373 0 z "},"(":{"ha":1268,"x_min":null,"x_max":null,"o":"m 379 844 l 379 128 b 646 -139 379 -45 474 -139 l 985 -139 l 985 80 l 701 80 b 622 159 633 80 622 90 l 622 813 b 701 892 622 882 633 892 l 985 892 l 985 1111 l 646 1111 b 379 844 474 1111 379 1017 z "},")":{"ha":1268,"x_min":null,"x_max":null,"o":"m 889 844 b 622 1111 889 1017 794 1111 l 283 1111 l 283 892 l 567 892 b 646 813 635 892 646 882 l 646 159 b 567 80 646 90 635 80 l 283 80 l 283 -139 l 622 -139 b 889 128 794 -139 889 -45 z "},"{":{"ha":1197,"x_min":null,"x_max":null,"o":"m 432 377 l 432 128 b 699 -139 432 -45 526 -139 l 915 -139 l 915 80 l 754 80 b 675 159 685 80 675 90 l 675 813 b 754 892 675 882 685 892 l 915 892 l 915 1111 l 699 1111 b 432 844 526 1111 432 1017 l 432 595 l 230 595 l 230 377 z "},"}":{"ha":1197,"x_min":null,"x_max":null,"o":"m 765 128 l 765 377 l 967 377 l 967 595 l 765 595 l 765 844 b 499 1111 765 1017 671 1111 l 283 1111 l 283 892 l 443 892 b 522 813 512 892 522 882 l 522 159 b 443 80 522 90 512 80 l 283 80 l 283 -139 l 499 -139 b 765 128 671 -139 765 -45 z "},"[":{"ha":1268,"x_min":null,"x_max":null,"o":"m 379 1111 l 379 -139 l 985 -139 l 985 80 l 622 80 l 622 892 l 985 892 l 985 1111 z "},"]":{"ha":1268,"x_min":null,"x_max":null,"o":"m 889 1111 l 283 1111 l 283 892 l 646 892 l 646 80 l 283 80 l 283 -139 l 889 -139 z "},"“":{"ha":1253,"x_min":null,"x_max":null,"o":"m 547 555 l 547 972 l 514 972 l 299 757 l 299 555 z m 707 555 l 954 555 l 954 972 l 922 972 l 707 757 z "},"”":{"ha":1253,"x_min":null,"x_max":null,"o":"m 707 972 l 707 555 l 739 555 l 954 770 l 954 972 z m 299 555 l 331 555 l 547 770 l 547 972 l 299 972 z "},"‘":{"ha":846,"x_min":null,"x_max":null,"o":"m 547 555 l 547 972 l 514 972 l 299 757 l 299 555 z "},"’":{"ha":846,"x_min":null,"x_max":null,"o":"m 299 972 l 299 555 l 331 555 l 547 770 l 547 972 z "},"\"":{"ha":1253,"x_min":null,"x_max":null,"o":"m 707 972 l 707 555 l 739 555 l 954 770 l 954 972 z m 299 555 l 331 555 l 547 770 l 547 972 l 299 972 z "},"'":{"ha":846,"x_min":null,"x_max":null,"o":"m 299 972 l 299 555 l 331 555 l 547 770 l 547 972 z "},"@":{"ha":2312,"x_min":null,"x_max":null,"o":"m 637 -219 l 1942 -219 l 1942 0 l 692 0 b 613 79 624 0 613 10 l 613 893 b 692 972 613 962 624 972 l 1619 972 b 1699 893 1688 972 1699 962 l 1699 383 l 1534 383 l 1534 813 l 1044 813 b 778 546 872 813 778 719 l 778 431 b 1044 164 778 258 872 164 l 1942 164 l 1942 924 b 1676 1191 1942 1097 1848 1191 l 637 1191 b 370 924 464 1191 370 1097 l 370 48 b 637 -219 370 -124 464 -219 z m 1021 462 l 1021 515 b 1100 594 1021 583 1031 594 l 1291 594 l 1291 383 l 1100 383 b 1021 462 1031 383 1021 393 z "},"&":{"ha":2041,"x_min":null,"x_max":null,"o":"m 600 0 l 1396 0 b 1662 267 1568 0 1662 94 l 1662 377 l 1833 377 l 1833 595 l 1258 595 l 1258 377 l 1419 377 l 1419 298 b 1340 219 1419 229 1408 219 l 656 219 b 576 298 587 219 576 229 b 656 377 576 366 587 377 l 947 377 b 1214 643 1119 377 1214 471 l 1214 706 b 947 972 1214 878 1119 972 l 701 972 b 434 706 528 972 434 878 l 434 647 l 677 647 l 677 674 b 756 753 677 743 688 753 l 892 753 b 971 674 960 753 971 743 b 892 595 971 606 960 595 l 600 595 b 333 328 427 595 333 501 l 333 267 b 600 0 333 94 427 0 z "},"|":{"ha":1001,"x_min":null,"x_max":null,"o":"m 379 1111 l 379 -139 l 622 -139 l 622 1111 z "},"¦":{"ha":1001,"x_min":null,"x_max":null,"o":"m 379 1111 l 379 694 l 622 694 l 622 1111 z m 379 -139 l 622 -139 l 622 278 l 379 278 z "},"~":{"ha":2045,"x_min":null,"x_max":null,"o":"m 901 535 l 901 406 b 1167 139 901 233 995 139 l 1400 139 b 1666 406 1572 139 1666 233 l 1666 710 l 1423 710 l 1423 437 b 1344 358 1423 368 1413 358 l 1223 358 b 1144 437 1155 358 1144 368 l 1144 567 b 878 833 1144 740 1050 833 l 646 833 b 379 567 474 833 379 740 l 379 263 l 622 263 l 622 535 b 701 615 622 604 633 615 l 822 615 b 901 535 891 615 901 604 z "},"^":{"ha":1688,"x_min":null,"x_max":null,"o":"m 1028 486 l 1308 486 l 1308 518 l 972 972 l 718 972 l 379 518 l 379 486 l 658 486 l 843 742 z "},"%":{"ha":2406,"x_min":null,"x_max":null,"o":"m 1233 972 l 949 32 l 949 0 l 1173 0 l 1457 940 l 1457 972 z m 290 539 b 557 272 290 367 385 272 l 724 272 b 990 539 897 272 990 367 l 990 706 b 724 972 990 878 897 972 l 557 972 b 290 706 385 972 290 878 z m 533 570 l 533 674 b 613 753 533 743 544 753 l 668 753 b 747 674 737 753 747 743 l 747 570 b 668 491 747 501 737 491 l 613 491 b 533 570 544 491 533 501 z m 1416 270 b 1683 3 1416 97 1510 3 l 1849 3 b 2116 270 2022 3 2116 97 l 2116 437 b 1849 703 2116 610 2022 703 l 1683 703 b 1416 437 1510 703 1416 610 z m 1659 301 l 1659 406 b 1738 485 1659 474 1669 485 l 1794 485 b 1873 406 1863 485 1873 474 l 1873 301 b 1794 222 1873 233 1863 222 l 1738 222 b 1659 301 1669 222 1659 233 z "}}}
